<svg width="77" height="128" viewBox="0 0 77 128" fill="none" xmlns="http://www.w3.org/2000/svg">
<circle cx="16.8924" cy="11.0155" r="10.3231" fill="url(#paint0_linear_883_297)" fill-opacity="0.8"/>
<path d="M0 66.0615L-1.18491e-06 38.9538C-1.59271e-06 29.6245 7.56294 22.0615 16.8923 22.0615C26.2217 22.0615 33.7846 29.6245 33.7846 38.9538L33.7846 66.0615L0 66.0615Z" fill="url(#paint1_linear_883_297)" fill-opacity="0.8"/>
<circle cx="58.8924" cy="10.9539" r="10.3231" fill="#B4B4B4" fill-opacity="0.7"/>
<path d="M42 66L42 38.8923C42 29.5629 49.5629 22 58.8923 22C68.2217 22 75.7846 29.5629 75.7846 38.8923L75.7846 66L42 66Z" fill="#B4B4B4" fill-opacity="0.7"/>
<circle cx="38.9466" cy="43.3924" r="10.3231" fill="white"/>
<path d="M22.0542 98.4385L22.0542 71.3308C22.0542 62.0014 29.6171 54.4385 38.9465 54.4385C48.2759 54.4385 55.8388 62.0014 55.8388 71.3308L55.8388 98.4385L22.0542 98.4385Z" fill="white"/>
<g filter="url(#filter0_b_883_297)">
<circle cx="16.8924" cy="72.9539" r="10.3231" fill="#B4B4B4" fill-opacity="0.7"/>
<path d="M0 128L-1.18491e-06 100.892C-1.59271e-06 91.5629 7.56294 84 16.8923 84C26.2217 84 33.7846 91.5629 33.7846 100.892L33.7846 128L0 128Z" fill="#B4B4B4" fill-opacity="0.7"/>
</g>
<g filter="url(#filter1_b_883_297)">
<circle cx="59.1234" cy="72.9539" r="10.3231" fill="url(#paint2_linear_883_297)" fill-opacity="0.8"/>
<path d="M42.231 128L42.231 100.892C42.231 91.5629 49.7939 84 59.1233 84C68.4526 84 76.0156 91.5629 76.0156 100.892L76.0156 128L42.231 128Z" fill="url(#paint3_linear_883_297)" fill-opacity="0.8"/>
</g>
<defs>
<filter id="filter0_b_883_297" x="-13" y="49.6309" width="59.7847" height="91.3691" filterUnits="userSpaceOnUse" color-interpolation-filters="sRGB">
<feFlood flood-opacity="0" result="BackgroundImageFix"/>
<feGaussianBlur in="BackgroundImageFix" stdDeviation="6.5"/>
<feComposite in2="SourceAlpha" operator="in" result="effect1_backgroundBlur_883_297"/>
<feBlend mode="normal" in="SourceGraphic" in2="effect1_backgroundBlur_883_297" result="shape"/>
</filter>
<filter id="filter1_b_883_297" x="-13.769" y="6.63086" width="145.785" height="177.369" filterUnits="userSpaceOnUse" color-interpolation-filters="sRGB">
<feFlood flood-opacity="0" result="BackgroundImageFix"/>
<feGaussianBlur in="BackgroundImageFix" stdDeviation="28"/>
<feComposite in2="SourceAlpha" operator="in" result="effect1_backgroundBlur_883_297"/>
<feBlend mode="normal" in="SourceGraphic" in2="effect1_backgroundBlur_883_297" result="shape"/>
</filter>
<linearGradient id="paint0_linear_883_297" x1="1.51218" y1="21.3385" x2="33.4606" y2="21.3385" gradientUnits="userSpaceOnUse">
<stop stop-color="#FF58A2"/>
<stop offset="1" stop-color="#CA58FF"/>
</linearGradient>
<linearGradient id="paint1_linear_883_297" x1="33.7846" y1="76.8391" x2="33.7846" y2="8.7523" gradientUnits="userSpaceOnUse">
<stop stop-color="#FF58A2"/>
<stop offset="1" stop-color="#CA58FF"/>
</linearGradient>
<linearGradient id="paint2_linear_883_297" x1="43.7431" y1="83.277" x2="75.6915" y2="83.277" gradientUnits="userSpaceOnUse">
<stop stop-color="#FF58A2"/>
<stop offset="1" stop-color="#CA58FF"/>
</linearGradient>
<linearGradient id="paint3_linear_883_297" x1="76.0156" y1="138.778" x2="76.0156" y2="70.6908" gradientUnits="userSpaceOnUse">
<stop stop-color="#FF58A2"/>
<stop offset="1" stop-color="#CA58FF"/>
</linearGradient>
</defs>
</svg>
